<svg width="27" height="27" viewBox="0 0 27 27" fill="none" xmlns="http://www.w3.org/2000/svg">
<path d="M0 0H26.1919V26.1919H0V0Z" fill="white" fill-opacity="0.01"/>
<path d="M9.82197 3.27393H4.36532C3.76259 3.27393 3.27399 3.76253 3.27399 4.36526V9.82191C3.27399 10.4246 3.76259 10.9132 4.36532 10.9132H9.82197C10.4247 10.9132 10.9133 10.4246 10.9133 9.82191V4.36526C10.9133 3.76253 10.4247 3.27393 9.82197 3.27393Z" fill="#A3A3A3"/>
<path d="M9.82197 15.2786H4.36532C3.76259 15.2786 3.27399 15.7672 3.27399 16.3699V21.8265C3.27399 22.4293 3.76259 22.9179 4.36532 22.9179H9.82197C10.4247 22.9179 10.9133 22.4293 10.9133 21.8265V16.3699C10.9133 15.7672 10.4247 15.2786 9.82197 15.2786Z" fill="#A3A3A3"/>
<path d="M21.8266 3.27393H16.37C15.7672 3.27393 15.2786 3.76253 15.2786 4.36526V9.82191C15.2786 10.4246 15.7672 10.9132 16.37 10.9132H21.8266C22.4293 10.9132 22.9179 10.4246 22.9179 9.82191V4.36526C22.9179 3.76253 22.4293 3.27393 21.8266 3.27393Z" fill="#A3A3A3"/>
<path d="M21.8266 15.2786H16.37C15.7672 15.2786 15.2786 15.7672 15.2786 16.3699V21.8265C15.2786 22.4293 15.7672 22.9179 16.37 22.9179H21.8266C22.4293 22.9179 22.9179 22.4293 22.9179 21.8265V16.3699C22.9179 15.7672 22.4293 15.2786 21.8266 15.2786Z" fill="#A3A3A3"/>
</svg>
