<svg width="27" height="27" viewBox="0 0 27 27" fill="none" xmlns="http://www.w3.org/2000/svg">
<path d="M0 0H26.1919V26.1919H0V0Z" fill="white" fill-opacity="0.01"/>
<path d="M9.97684 23.5571C8.14826 23.0127 6.52059 22.002 5.23177 20.6627C5.71257 20.0929 6.00232 19.3566 6.00232 18.5527C6.00232 16.7445 4.53651 15.2787 2.72833 15.2787C2.61895 15.2787 2.51082 15.2841 2.4042 15.2945C2.25894 14.5844 2.18266 13.8491 2.18266 13.096C2.18266 11.9553 2.3577 10.8554 2.68238 9.82173C2.69767 9.82195 2.71298 9.82206 2.72833 9.82206C4.53651 9.82206 6.00232 8.35624 6.00232 6.54807C6.00232 6.02897 5.88151 5.53809 5.66652 5.10205C6.92859 3.92853 8.469 3.0503 10.1778 2.57727C10.7193 3.63862 11.8228 4.36541 13.096 4.36541C14.3692 4.36541 15.4727 3.63862 16.0141 2.57727C17.7229 3.0503 19.2634 3.92853 20.5254 5.10205C20.3104 5.53809 20.1896 6.02897 20.1896 6.54807C20.1896 8.35624 21.6554 9.82206 23.4636 9.82206C23.4789 9.82206 23.4943 9.82195 23.5096 9.82173C23.8342 10.8554 24.0093 11.9553 24.0093 13.096C24.0093 13.8491 23.933 14.5844 23.7877 15.2945C23.6811 15.2841 23.573 15.2787 23.4636 15.2787C21.6554 15.2787 20.1896 16.7445 20.1896 18.5527C20.1896 19.3566 20.4794 20.0929 20.9602 20.6627C19.6713 22.002 18.0437 23.0127 16.2151 23.5571C15.7931 22.2369 14.5562 21.281 13.096 21.281C11.6358 21.281 10.3989 22.2369 9.97684 23.5571Z" fill="#A3A3A3"/>
<path d="M13.096 16.9156C15.2055 16.9156 16.9156 15.2054 16.9156 13.0959C16.9156 10.9864 15.2055 9.27625 13.096 9.27625C10.9864 9.27625 9.27632 10.9864 9.27632 13.0959C9.27632 15.2054 10.9864 16.9156 13.096 16.9156Z" fill="#43CCF8" stroke="white" stroke-width="2.75937" stroke-linejoin="round"/>
</svg>
